<mxfile host="app.diagrams.net" agent="Mozilla/5.0 (Windows NT 10.0; Win64; x64) AppleWebKit/537.36 (KHTML, like Gecko) Chrome/128.0.0.0 Safari/537.36" version="24.7.14">
  <diagram name="Página-1" id="qSARpnM_kFnA1O6T9zdH">
    <mxGraphModel dx="3520" dy="827" grid="1" gridSize="10" guides="1" tooltips="1" connect="1" arrows="1" fold="1" page="1" pageScale="1" pageWidth="827" pageHeight="1169" math="0" shadow="0">
      <root>
        <mxCell id="0" />
        <mxCell id="1" parent="0" />
        <mxCell id="JbEtCdNb4sZYKnE4IsCW-9" value="Processo geral&amp;nbsp;" style="swimlane;childLayout=stackLayout;resizeParent=1;resizeParentMax=0;horizontal=1;startSize=20;horizontalStack=0;html=1;fillColor=#e1d5e7;strokeColor=#9673a6;" vertex="1" parent="1">
          <mxGeometry x="-1600" y="50" width="1600" height="560" as="geometry" />
        </mxCell>
        <mxCell id="JbEtCdNb4sZYKnE4IsCW-10" value="Usuário" style="swimlane;startSize=20;horizontal=0;html=1;" vertex="1" parent="JbEtCdNb4sZYKnE4IsCW-9">
          <mxGeometry y="20" width="1600" height="180" as="geometry" />
        </mxCell>
        <mxCell id="JbEtCdNb4sZYKnE4IsCW-16" value="" style="ellipse;whiteSpace=wrap;html=1;aspect=fixed;fillColor=#d5e8d4;strokeColor=#82b366;" vertex="1" parent="JbEtCdNb4sZYKnE4IsCW-10">
          <mxGeometry x="30" y="70" width="40" height="40" as="geometry" />
        </mxCell>
        <mxCell id="JbEtCdNb4sZYKnE4IsCW-18" value="Envio da solicitação" style="rounded=1;whiteSpace=wrap;html=1;fillColor=#dae8fc;strokeColor=#6c8ebf;" vertex="1" parent="JbEtCdNb4sZYKnE4IsCW-10">
          <mxGeometry x="110" y="60" width="120" height="60" as="geometry" />
        </mxCell>
        <mxCell id="JbEtCdNb4sZYKnE4IsCW-19" value="" style="endArrow=classic;html=1;rounded=0;entryX=0;entryY=0.5;entryDx=0;entryDy=0;" edge="1" parent="JbEtCdNb4sZYKnE4IsCW-10" target="JbEtCdNb4sZYKnE4IsCW-18">
          <mxGeometry width="50" height="50" relative="1" as="geometry">
            <mxPoint x="70" y="90" as="sourcePoint" />
            <mxPoint x="120" y="40" as="targetPoint" />
          </mxGeometry>
        </mxCell>
        <mxCell id="JbEtCdNb4sZYKnE4IsCW-14" value="" style="sketch=0;pointerEvents=1;shadow=0;dashed=0;html=1;strokeColor=none;fillColor=#505050;labelPosition=center;verticalLabelPosition=bottom;verticalAlign=top;outlineConnect=0;align=center;shape=mxgraph.office.concepts.clock;" vertex="1" parent="JbEtCdNb4sZYKnE4IsCW-10">
          <mxGeometry x="270" y="72.5" width="35" height="35" as="geometry" />
        </mxCell>
        <mxCell id="JbEtCdNb4sZYKnE4IsCW-20" value="" style="endArrow=classic;html=1;rounded=0;entryX=0;entryY=0.5;entryDx=0;entryDy=0;" edge="1" parent="JbEtCdNb4sZYKnE4IsCW-10">
          <mxGeometry width="50" height="50" relative="1" as="geometry">
            <mxPoint x="230" y="90" as="sourcePoint" />
            <mxPoint x="270" y="89.5" as="targetPoint" />
          </mxGeometry>
        </mxCell>
        <mxCell id="JbEtCdNb4sZYKnE4IsCW-21" value="" style="endArrow=classic;html=1;rounded=0;entryX=0;entryY=0.5;entryDx=0;entryDy=0;" edge="1" parent="JbEtCdNb4sZYKnE4IsCW-10" target="JbEtCdNb4sZYKnE4IsCW-23">
          <mxGeometry width="50" height="50" relative="1" as="geometry">
            <mxPoint x="305" y="90" as="sourcePoint" />
            <mxPoint x="345" y="89.5" as="targetPoint" />
          </mxGeometry>
        </mxCell>
        <mxCell id="JbEtCdNb4sZYKnE4IsCW-23" value="Resposta à inspeção." style="rounded=1;whiteSpace=wrap;html=1;fillColor=#dae8fc;strokeColor=#6c8ebf;" vertex="1" parent="JbEtCdNb4sZYKnE4IsCW-10">
          <mxGeometry x="350" y="60" width="120" height="60" as="geometry" />
        </mxCell>
        <mxCell id="JbEtCdNb4sZYKnE4IsCW-25" value="" style="endArrow=classic;html=1;rounded=0;" edge="1" parent="JbEtCdNb4sZYKnE4IsCW-10" target="JbEtCdNb4sZYKnE4IsCW-26">
          <mxGeometry width="50" height="50" relative="1" as="geometry">
            <mxPoint x="470" y="90" as="sourcePoint" />
            <mxPoint x="500" y="90" as="targetPoint" />
          </mxGeometry>
        </mxCell>
        <mxCell id="JbEtCdNb4sZYKnE4IsCW-112" style="edgeStyle=orthogonalEdgeStyle;rounded=0;orthogonalLoop=1;jettySize=auto;html=1;entryX=0.5;entryY=0;entryDx=0;entryDy=0;" edge="1" parent="JbEtCdNb4sZYKnE4IsCW-10" source="JbEtCdNb4sZYKnE4IsCW-26" target="JbEtCdNb4sZYKnE4IsCW-37">
          <mxGeometry relative="1" as="geometry">
            <mxPoint x="800" y="20" as="targetPoint" />
            <Array as="points">
              <mxPoint x="585" y="20" />
              <mxPoint x="1000" y="20" />
            </Array>
          </mxGeometry>
        </mxCell>
        <mxCell id="JbEtCdNb4sZYKnE4IsCW-26" value="Aceita&lt;div&gt;prosseguir?&lt;/div&gt;" style="html=1;whiteSpace=wrap;aspect=fixed;shape=isoRectangle;fillColor=#dae8fc;strokeColor=#6c8ebf;" vertex="1" parent="JbEtCdNb4sZYKnE4IsCW-10">
          <mxGeometry x="510" y="45" width="150" height="90" as="geometry" />
        </mxCell>
        <mxCell id="JbEtCdNb4sZYKnE4IsCW-38" value="" style="edgeStyle=orthogonalEdgeStyle;rounded=0;orthogonalLoop=1;jettySize=auto;html=1;" edge="1" parent="JbEtCdNb4sZYKnE4IsCW-10" source="JbEtCdNb4sZYKnE4IsCW-27" target="JbEtCdNb4sZYKnE4IsCW-37">
          <mxGeometry relative="1" as="geometry" />
        </mxCell>
        <mxCell id="JbEtCdNb4sZYKnE4IsCW-27" value="Resposta aos feedbacks." style="rounded=1;whiteSpace=wrap;html=1;fillColor=#dae8fc;strokeColor=#6c8ebf;" vertex="1" parent="JbEtCdNb4sZYKnE4IsCW-10">
          <mxGeometry x="780" y="57.5" width="120" height="60" as="geometry" />
        </mxCell>
        <mxCell id="JbEtCdNb4sZYKnE4IsCW-28" value="" style="endArrow=classic;html=1;rounded=0;entryX=0.086;entryY=-0.004;entryDx=0;entryDy=0;entryPerimeter=0;" edge="1" parent="JbEtCdNb4sZYKnE4IsCW-10" target="JbEtCdNb4sZYKnE4IsCW-67">
          <mxGeometry width="50" height="50" relative="1" as="geometry">
            <mxPoint x="660" y="90" as="sourcePoint" />
            <mxPoint x="700" y="170" as="targetPoint" />
            <Array as="points">
              <mxPoint x="670" y="90" />
              <mxPoint x="670" y="130" />
              <mxPoint x="790" y="130" />
              <mxPoint x="790" y="210" />
              <mxPoint x="880" y="210" />
              <mxPoint x="980" y="210" />
            </Array>
          </mxGeometry>
        </mxCell>
        <mxCell id="JbEtCdNb4sZYKnE4IsCW-29" value="" style="endArrow=classic;html=1;rounded=0;" edge="1" parent="JbEtCdNb4sZYKnE4IsCW-10">
          <mxGeometry width="50" height="50" relative="1" as="geometry">
            <mxPoint x="670" y="90" as="sourcePoint" />
            <mxPoint x="710" y="90" as="targetPoint" />
          </mxGeometry>
        </mxCell>
        <mxCell id="JbEtCdNb4sZYKnE4IsCW-36" value="" style="edgeStyle=orthogonalEdgeStyle;rounded=0;orthogonalLoop=1;jettySize=auto;html=1;" edge="1" parent="JbEtCdNb4sZYKnE4IsCW-10" source="JbEtCdNb4sZYKnE4IsCW-34" target="JbEtCdNb4sZYKnE4IsCW-27">
          <mxGeometry relative="1" as="geometry" />
        </mxCell>
        <mxCell id="JbEtCdNb4sZYKnE4IsCW-34" value="" style="sketch=0;pointerEvents=1;shadow=0;dashed=0;html=1;strokeColor=none;fillColor=#505050;labelPosition=center;verticalLabelPosition=bottom;verticalAlign=top;outlineConnect=0;align=center;shape=mxgraph.office.concepts.clock;" vertex="1" parent="JbEtCdNb4sZYKnE4IsCW-10">
          <mxGeometry x="710" y="70" width="35" height="35" as="geometry" />
        </mxCell>
        <mxCell id="JbEtCdNb4sZYKnE4IsCW-41" value="" style="edgeStyle=orthogonalEdgeStyle;rounded=0;orthogonalLoop=1;jettySize=auto;html=1;" edge="1" parent="JbEtCdNb4sZYKnE4IsCW-10" source="JbEtCdNb4sZYKnE4IsCW-37" target="JbEtCdNb4sZYKnE4IsCW-40">
          <mxGeometry relative="1" as="geometry" />
        </mxCell>
        <mxCell id="JbEtCdNb4sZYKnE4IsCW-37" value="Realiza o pagamento." style="rounded=1;whiteSpace=wrap;html=1;fillColor=#dae8fc;strokeColor=#6c8ebf;" vertex="1" parent="JbEtCdNb4sZYKnE4IsCW-10">
          <mxGeometry x="940" y="57.5" width="120" height="60" as="geometry" />
        </mxCell>
        <mxCell id="JbEtCdNb4sZYKnE4IsCW-43" value="" style="edgeStyle=orthogonalEdgeStyle;rounded=0;orthogonalLoop=1;jettySize=auto;html=1;" edge="1" parent="JbEtCdNb4sZYKnE4IsCW-10" source="JbEtCdNb4sZYKnE4IsCW-40" target="JbEtCdNb4sZYKnE4IsCW-42">
          <mxGeometry relative="1" as="geometry" />
        </mxCell>
        <mxCell id="JbEtCdNb4sZYKnE4IsCW-40" value="Avalia o serviço." style="rounded=1;whiteSpace=wrap;html=1;fillColor=#dae8fc;strokeColor=#6c8ebf;" vertex="1" parent="JbEtCdNb4sZYKnE4IsCW-10">
          <mxGeometry x="1100" y="57.5" width="120" height="60" as="geometry" />
        </mxCell>
        <mxCell id="JbEtCdNb4sZYKnE4IsCW-42" value="" style="ellipse;whiteSpace=wrap;html=1;aspect=fixed;fillColor=#f8cecc;strokeColor=#b85450;" vertex="1" parent="JbEtCdNb4sZYKnE4IsCW-10">
          <mxGeometry x="1260" y="67.5" width="40" height="40" as="geometry" />
        </mxCell>
        <mxCell id="JbEtCdNb4sZYKnE4IsCW-61" value="Transporta o veículo, se assim preferiu,&lt;div&gt;e aguarda o resultado da inspeção.&lt;/div&gt;" style="text;html=1;align=center;verticalAlign=middle;resizable=0;points=[];autosize=1;strokeColor=none;fillColor=none;" vertex="1" parent="JbEtCdNb4sZYKnE4IsCW-10">
          <mxGeometry x="180" y="120" width="230" height="40" as="geometry" />
        </mxCell>
        <mxCell id="JbEtCdNb4sZYKnE4IsCW-90" value="" style="ellipse;whiteSpace=wrap;html=1;" vertex="1" parent="JbEtCdNb4sZYKnE4IsCW-10">
          <mxGeometry x="160" y="120" width="10" height="5" as="geometry" />
        </mxCell>
        <mxCell id="JbEtCdNb4sZYKnE4IsCW-32" value="Não" style="text;html=1;align=center;verticalAlign=middle;resizable=0;points=[];autosize=1;strokeColor=none;fillColor=none;" vertex="1" parent="JbEtCdNb4sZYKnE4IsCW-10">
          <mxGeometry x="520" y="15" width="50" height="30" as="geometry" />
        </mxCell>
        <mxCell id="JbEtCdNb4sZYKnE4IsCW-115" value="" style="ellipse;whiteSpace=wrap;html=1;" vertex="1" parent="JbEtCdNb4sZYKnE4IsCW-10">
          <mxGeometry x="850" y="115" width="10" height="5" as="geometry" />
        </mxCell>
        <mxCell id="JbEtCdNb4sZYKnE4IsCW-31" value="Sim" style="text;html=1;align=center;verticalAlign=middle;resizable=0;points=[];autosize=1;strokeColor=none;fillColor=none;" vertex="1" parent="JbEtCdNb4sZYKnE4IsCW-10">
          <mxGeometry x="660" y="57.5" width="40" height="30" as="geometry" />
        </mxCell>
        <mxCell id="JbEtCdNb4sZYKnE4IsCW-11" value="Estabelecimento" style="swimlane;startSize=20;horizontal=0;html=1;" vertex="1" parent="JbEtCdNb4sZYKnE4IsCW-9">
          <mxGeometry y="200" width="1600" height="180" as="geometry">
            <mxRectangle y="140" width="480" height="30" as="alternateBounds" />
          </mxGeometry>
        </mxCell>
        <mxCell id="JbEtCdNb4sZYKnE4IsCW-52" value="" style="edgeStyle=orthogonalEdgeStyle;rounded=0;orthogonalLoop=1;jettySize=auto;html=1;" edge="1" parent="JbEtCdNb4sZYKnE4IsCW-11" source="JbEtCdNb4sZYKnE4IsCW-48" target="JbEtCdNb4sZYKnE4IsCW-51">
          <mxGeometry relative="1" as="geometry" />
        </mxCell>
        <mxCell id="JbEtCdNb4sZYKnE4IsCW-48" value="" style="ellipse;whiteSpace=wrap;html=1;aspect=fixed;fillColor=#d5e8d4;strokeColor=#82b366;" vertex="1" parent="JbEtCdNb4sZYKnE4IsCW-11">
          <mxGeometry x="50" y="70" width="40" height="40" as="geometry" />
        </mxCell>
        <mxCell id="JbEtCdNb4sZYKnE4IsCW-54" value="" style="edgeStyle=orthogonalEdgeStyle;rounded=0;orthogonalLoop=1;jettySize=auto;html=1;" edge="1" parent="JbEtCdNb4sZYKnE4IsCW-11" source="JbEtCdNb4sZYKnE4IsCW-51" target="JbEtCdNb4sZYKnE4IsCW-53">
          <mxGeometry relative="1" as="geometry" />
        </mxCell>
        <mxCell id="JbEtCdNb4sZYKnE4IsCW-51" value="Envio da solicitação" style="rounded=1;whiteSpace=wrap;html=1;fillColor=#dae8fc;strokeColor=#6c8ebf;" vertex="1" parent="JbEtCdNb4sZYKnE4IsCW-11">
          <mxGeometry x="120" y="60" width="120" height="60" as="geometry" />
        </mxCell>
        <mxCell id="JbEtCdNb4sZYKnE4IsCW-56" value="" style="edgeStyle=orthogonalEdgeStyle;rounded=0;orthogonalLoop=1;jettySize=auto;html=1;" edge="1" parent="JbEtCdNb4sZYKnE4IsCW-11" source="JbEtCdNb4sZYKnE4IsCW-53" target="JbEtCdNb4sZYKnE4IsCW-55">
          <mxGeometry relative="1" as="geometry" />
        </mxCell>
        <mxCell id="JbEtCdNb4sZYKnE4IsCW-108" style="edgeStyle=orthogonalEdgeStyle;rounded=0;orthogonalLoop=1;jettySize=auto;html=1;entryX=0.5;entryY=1;entryDx=0;entryDy=0;" edge="1" parent="JbEtCdNb4sZYKnE4IsCW-11" source="JbEtCdNb4sZYKnE4IsCW-53" target="JbEtCdNb4sZYKnE4IsCW-63">
          <mxGeometry relative="1" as="geometry">
            <mxPoint x="770" y="150" as="targetPoint" />
            <Array as="points">
              <mxPoint x="355" y="170" />
              <mxPoint x="770" y="170" />
            </Array>
          </mxGeometry>
        </mxCell>
        <mxCell id="JbEtCdNb4sZYKnE4IsCW-53" value="Responsabilidade&lt;div&gt;do transporte?&lt;/div&gt;" style="html=1;whiteSpace=wrap;aspect=fixed;shape=isoRectangle;fillColor=#dae8fc;strokeColor=#6c8ebf;" vertex="1" parent="JbEtCdNb4sZYKnE4IsCW-11">
          <mxGeometry x="280" y="45" width="150" height="90" as="geometry" />
        </mxCell>
        <mxCell id="JbEtCdNb4sZYKnE4IsCW-60" value="" style="edgeStyle=orthogonalEdgeStyle;rounded=0;orthogonalLoop=1;jettySize=auto;html=1;" edge="1" parent="JbEtCdNb4sZYKnE4IsCW-11" source="JbEtCdNb4sZYKnE4IsCW-55" target="JbEtCdNb4sZYKnE4IsCW-59">
          <mxGeometry relative="1" as="geometry" />
        </mxCell>
        <mxCell id="JbEtCdNb4sZYKnE4IsCW-55" value="Requisição de transporte." style="rounded=1;whiteSpace=wrap;html=1;fillColor=#dae8fc;strokeColor=#6c8ebf;" vertex="1" parent="JbEtCdNb4sZYKnE4IsCW-11">
          <mxGeometry x="470" y="60" width="120" height="60" as="geometry" />
        </mxCell>
        <mxCell id="JbEtCdNb4sZYKnE4IsCW-57" value="DIY" style="text;html=1;align=center;verticalAlign=middle;resizable=0;points=[];autosize=1;strokeColor=none;fillColor=none;" vertex="1" parent="JbEtCdNb4sZYKnE4IsCW-11">
          <mxGeometry x="420" y="50" width="40" height="30" as="geometry" />
        </mxCell>
        <mxCell id="JbEtCdNb4sZYKnE4IsCW-58" value="Usuário" style="text;html=1;align=center;verticalAlign=middle;resizable=0;points=[];autosize=1;strokeColor=none;fillColor=none;" vertex="1" parent="JbEtCdNb4sZYKnE4IsCW-11">
          <mxGeometry x="285" y="130" width="60" height="30" as="geometry" />
        </mxCell>
        <mxCell id="JbEtCdNb4sZYKnE4IsCW-64" value="" style="edgeStyle=orthogonalEdgeStyle;rounded=0;orthogonalLoop=1;jettySize=auto;html=1;" edge="1" parent="JbEtCdNb4sZYKnE4IsCW-11" source="JbEtCdNb4sZYKnE4IsCW-59" target="JbEtCdNb4sZYKnE4IsCW-63">
          <mxGeometry relative="1" as="geometry" />
        </mxCell>
        <mxCell id="JbEtCdNb4sZYKnE4IsCW-59" value="" style="sketch=0;pointerEvents=1;shadow=0;dashed=0;html=1;strokeColor=none;fillColor=#505050;labelPosition=center;verticalLabelPosition=bottom;verticalAlign=top;outlineConnect=0;align=center;shape=mxgraph.office.concepts.clock;" vertex="1" parent="JbEtCdNb4sZYKnE4IsCW-11">
          <mxGeometry x="630" y="72.5" width="35" height="35" as="geometry" />
        </mxCell>
        <mxCell id="JbEtCdNb4sZYKnE4IsCW-62" value="Aguarda a chegada do veículo." style="text;html=1;align=center;verticalAlign=middle;resizable=0;points=[];autosize=1;strokeColor=none;fillColor=none;" vertex="1" parent="JbEtCdNb4sZYKnE4IsCW-11">
          <mxGeometry x="560" y="120" width="190" height="30" as="geometry" />
        </mxCell>
        <mxCell id="JbEtCdNb4sZYKnE4IsCW-66" value="" style="edgeStyle=orthogonalEdgeStyle;rounded=0;orthogonalLoop=1;jettySize=auto;html=1;" edge="1" parent="JbEtCdNb4sZYKnE4IsCW-11" source="JbEtCdNb4sZYKnE4IsCW-63" target="JbEtCdNb4sZYKnE4IsCW-65">
          <mxGeometry relative="1" as="geometry" />
        </mxCell>
        <mxCell id="JbEtCdNb4sZYKnE4IsCW-63" value="Feedback da inspeção" style="rounded=1;whiteSpace=wrap;html=1;fillColor=#dae8fc;strokeColor=#6c8ebf;" vertex="1" parent="JbEtCdNb4sZYKnE4IsCW-11">
          <mxGeometry x="710" y="60" width="120" height="60" as="geometry" />
        </mxCell>
        <mxCell id="JbEtCdNb4sZYKnE4IsCW-68" value="" style="edgeStyle=orthogonalEdgeStyle;rounded=0;orthogonalLoop=1;jettySize=auto;html=1;" edge="1" parent="JbEtCdNb4sZYKnE4IsCW-11" source="JbEtCdNb4sZYKnE4IsCW-65" target="JbEtCdNb4sZYKnE4IsCW-67">
          <mxGeometry relative="1" as="geometry" />
        </mxCell>
        <mxCell id="JbEtCdNb4sZYKnE4IsCW-65" value="" style="ellipse;shape=doubleEllipse;whiteSpace=wrap;html=1;aspect=fixed;" vertex="1" parent="JbEtCdNb4sZYKnE4IsCW-11">
          <mxGeometry x="880" y="70" width="40" height="40" as="geometry" />
        </mxCell>
        <mxCell id="JbEtCdNb4sZYKnE4IsCW-71" value="" style="edgeStyle=orthogonalEdgeStyle;rounded=0;orthogonalLoop=1;jettySize=auto;html=1;" edge="1" parent="JbEtCdNb4sZYKnE4IsCW-11" source="JbEtCdNb4sZYKnE4IsCW-67" target="JbEtCdNb4sZYKnE4IsCW-69">
          <mxGeometry relative="1" as="geometry" />
        </mxCell>
        <mxCell id="JbEtCdNb4sZYKnE4IsCW-67" value="Iteração de feedbacks" style="rounded=1;whiteSpace=wrap;html=1;fillColor=#dae8fc;strokeColor=#6c8ebf;" vertex="1" parent="JbEtCdNb4sZYKnE4IsCW-11">
          <mxGeometry x="970" y="60" width="120" height="60" as="geometry" />
        </mxCell>
        <mxCell id="JbEtCdNb4sZYKnE4IsCW-73" value="" style="edgeStyle=orthogonalEdgeStyle;rounded=0;orthogonalLoop=1;jettySize=auto;html=1;" edge="1" parent="JbEtCdNb4sZYKnE4IsCW-11" source="JbEtCdNb4sZYKnE4IsCW-69" target="JbEtCdNb4sZYKnE4IsCW-72">
          <mxGeometry relative="1" as="geometry" />
        </mxCell>
        <mxCell id="JbEtCdNb4sZYKnE4IsCW-119" style="edgeStyle=orthogonalEdgeStyle;rounded=0;orthogonalLoop=1;jettySize=auto;html=1;entryX=0.5;entryY=0;entryDx=0;entryDy=0;" edge="1" parent="JbEtCdNb4sZYKnE4IsCW-11" source="JbEtCdNb4sZYKnE4IsCW-69" target="JbEtCdNb4sZYKnE4IsCW-74">
          <mxGeometry relative="1" as="geometry">
            <mxPoint x="1560" y="20" as="targetPoint" />
            <Array as="points">
              <mxPoint x="1225" y="20" />
              <mxPoint x="1560" y="20" />
            </Array>
          </mxGeometry>
        </mxCell>
        <mxCell id="JbEtCdNb4sZYKnE4IsCW-69" value="Responsabilidade&lt;div&gt;do transporte?&lt;/div&gt;" style="html=1;whiteSpace=wrap;aspect=fixed;shape=isoRectangle;fillColor=#dae8fc;strokeColor=#6c8ebf;" vertex="1" parent="JbEtCdNb4sZYKnE4IsCW-11">
          <mxGeometry x="1150" y="45" width="150" height="90" as="geometry" />
        </mxCell>
        <mxCell id="JbEtCdNb4sZYKnE4IsCW-75" value="" style="edgeStyle=orthogonalEdgeStyle;rounded=0;orthogonalLoop=1;jettySize=auto;html=1;" edge="1" parent="JbEtCdNb4sZYKnE4IsCW-11" source="JbEtCdNb4sZYKnE4IsCW-72" target="JbEtCdNb4sZYKnE4IsCW-74">
          <mxGeometry relative="1" as="geometry" />
        </mxCell>
        <mxCell id="JbEtCdNb4sZYKnE4IsCW-72" value="Requisição de transporte" style="rounded=1;whiteSpace=wrap;html=1;fillColor=#dae8fc;strokeColor=#6c8ebf;" vertex="1" parent="JbEtCdNb4sZYKnE4IsCW-11">
          <mxGeometry x="1360" y="60" width="120" height="60" as="geometry" />
        </mxCell>
        <mxCell id="JbEtCdNb4sZYKnE4IsCW-74" value="" style="ellipse;whiteSpace=wrap;html=1;aspect=fixed;fillColor=#f8cecc;strokeColor=#b85450;" vertex="1" parent="JbEtCdNb4sZYKnE4IsCW-11">
          <mxGeometry x="1540" y="70" width="40" height="40" as="geometry" />
        </mxCell>
        <mxCell id="JbEtCdNb4sZYKnE4IsCW-91" value="" style="ellipse;whiteSpace=wrap;html=1;" vertex="1" parent="JbEtCdNb4sZYKnE4IsCW-11">
          <mxGeometry x="525" y="120" width="10" height="5" as="geometry" />
        </mxCell>
        <mxCell id="JbEtCdNb4sZYKnE4IsCW-109" value="" style="ellipse;whiteSpace=wrap;html=1;" vertex="1" parent="JbEtCdNb4sZYKnE4IsCW-11">
          <mxGeometry x="765" y="55" width="10" height="5" as="geometry" />
        </mxCell>
        <mxCell id="JbEtCdNb4sZYKnE4IsCW-113" value="" style="ellipse;whiteSpace=wrap;html=1;" vertex="1" parent="JbEtCdNb4sZYKnE4IsCW-11">
          <mxGeometry x="1000" y="55" width="10" height="5" as="geometry" />
        </mxCell>
        <mxCell id="JbEtCdNb4sZYKnE4IsCW-122" style="edgeStyle=orthogonalEdgeStyle;rounded=0;orthogonalLoop=1;jettySize=auto;html=1;dashed=1;fillColor=#ffe6cc;strokeColor=#d79b00;" edge="1" parent="JbEtCdNb4sZYKnE4IsCW-11" source="JbEtCdNb4sZYKnE4IsCW-118">
          <mxGeometry relative="1" as="geometry">
            <mxPoint x="530" y="200" as="targetPoint" />
            <Array as="points">
              <mxPoint x="1415" y="200" />
            </Array>
          </mxGeometry>
        </mxCell>
        <mxCell id="JbEtCdNb4sZYKnE4IsCW-118" value="" style="ellipse;whiteSpace=wrap;html=1;" vertex="1" parent="JbEtCdNb4sZYKnE4IsCW-11">
          <mxGeometry x="1410" y="120" width="10" height="5" as="geometry" />
        </mxCell>
        <mxCell id="JbEtCdNb4sZYKnE4IsCW-121" value="DIY" style="text;html=1;align=center;verticalAlign=middle;resizable=0;points=[];autosize=1;strokeColor=none;fillColor=none;" vertex="1" parent="JbEtCdNb4sZYKnE4IsCW-11">
          <mxGeometry x="1310" y="95" width="40" height="30" as="geometry" />
        </mxCell>
        <mxCell id="JbEtCdNb4sZYKnE4IsCW-12" value="Central" style="swimlane;startSize=20;horizontal=0;html=1;" vertex="1" parent="JbEtCdNb4sZYKnE4IsCW-9">
          <mxGeometry y="380" width="1600" height="180" as="geometry" />
        </mxCell>
        <mxCell id="JbEtCdNb4sZYKnE4IsCW-77" value="" style="edgeStyle=orthogonalEdgeStyle;rounded=0;orthogonalLoop=1;jettySize=auto;html=1;" edge="1" parent="JbEtCdNb4sZYKnE4IsCW-12" source="JbEtCdNb4sZYKnE4IsCW-49" target="JbEtCdNb4sZYKnE4IsCW-76">
          <mxGeometry relative="1" as="geometry" />
        </mxCell>
        <mxCell id="JbEtCdNb4sZYKnE4IsCW-49" value="" style="ellipse;whiteSpace=wrap;html=1;aspect=fixed;fillColor=#d5e8d4;strokeColor=#82b366;" vertex="1" parent="JbEtCdNb4sZYKnE4IsCW-12">
          <mxGeometry x="50" y="70" width="40" height="40" as="geometry" />
        </mxCell>
        <mxCell id="JbEtCdNb4sZYKnE4IsCW-107" value="" style="edgeStyle=orthogonalEdgeStyle;rounded=0;orthogonalLoop=1;jettySize=auto;html=1;" edge="1" parent="JbEtCdNb4sZYKnE4IsCW-12" source="JbEtCdNb4sZYKnE4IsCW-76" target="JbEtCdNb4sZYKnE4IsCW-106">
          <mxGeometry relative="1" as="geometry" />
        </mxCell>
        <mxCell id="JbEtCdNb4sZYKnE4IsCW-76" value="Compartilhamento de&lt;div&gt;localização.&lt;/div&gt;" style="rounded=1;whiteSpace=wrap;html=1;fillColor=#dae8fc;strokeColor=#6c8ebf;" vertex="1" parent="JbEtCdNb4sZYKnE4IsCW-12">
          <mxGeometry x="130" y="60" width="120" height="60" as="geometry" />
        </mxCell>
        <mxCell id="JbEtCdNb4sZYKnE4IsCW-89" value="" style="ellipse;whiteSpace=wrap;html=1;" vertex="1" parent="JbEtCdNb4sZYKnE4IsCW-12">
          <mxGeometry x="210" y="120" width="10" height="5" as="geometry" />
        </mxCell>
        <mxCell id="JbEtCdNb4sZYKnE4IsCW-98" value="" style="edgeStyle=orthogonalEdgeStyle;rounded=0;orthogonalLoop=1;jettySize=auto;html=1;dashed=1;entryX=0.5;entryY=1;entryDx=0;entryDy=0;fillColor=#e1d5e7;strokeColor=#9673a6;" edge="1" parent="JbEtCdNb4sZYKnE4IsCW-12" target="JbEtCdNb4sZYKnE4IsCW-49">
          <mxGeometry relative="1" as="geometry">
            <mxPoint x="180" y="240" as="sourcePoint" />
            <mxPoint x="70" y="150" as="targetPoint" />
            <Array as="points">
              <mxPoint x="180" y="160" />
              <mxPoint x="70" y="160" />
            </Array>
          </mxGeometry>
        </mxCell>
        <mxCell id="JbEtCdNb4sZYKnE4IsCW-106" value="" style="ellipse;whiteSpace=wrap;html=1;aspect=fixed;fillColor=#f8cecc;strokeColor=#b85450;" vertex="1" parent="JbEtCdNb4sZYKnE4IsCW-12">
          <mxGeometry x="290" y="70" width="40" height="40" as="geometry" />
        </mxCell>
        <mxCell id="JbEtCdNb4sZYKnE4IsCW-123" value="" style="shape=waypoint;sketch=0;fillStyle=solid;size=6;pointerEvents=1;points=[];fillColor=#e1d5e7;resizable=0;rotatable=0;perimeter=centerPerimeter;snapToPoint=1;strokeColor=#9673a6;" vertex="1" parent="JbEtCdNb4sZYKnE4IsCW-12">
          <mxGeometry x="520" y="10" width="20" height="20" as="geometry" />
        </mxCell>
        <mxCell id="JbEtCdNb4sZYKnE4IsCW-127" value="" style="ellipse;whiteSpace=wrap;html=1;" vertex="1" parent="JbEtCdNb4sZYKnE4IsCW-12">
          <mxGeometry x="170" y="55" width="10" height="5" as="geometry" />
        </mxCell>
        <mxCell id="JbEtCdNb4sZYKnE4IsCW-129" value="" style="ellipse;whiteSpace=wrap;html=1;" vertex="1" parent="JbEtCdNb4sZYKnE4IsCW-12">
          <mxGeometry x="210" y="55" width="10" height="5" as="geometry" />
        </mxCell>
        <mxCell id="JbEtCdNb4sZYKnE4IsCW-102" value="" style="edgeStyle=orthogonalEdgeStyle;rounded=0;orthogonalLoop=1;jettySize=auto;html=1;entryX=0.5;entryY=0;entryDx=0;entryDy=0;dashed=1;fillColor=#e1d5e7;strokeColor=#9673a6;" edge="1" parent="JbEtCdNb4sZYKnE4IsCW-9" source="JbEtCdNb4sZYKnE4IsCW-90" target="JbEtCdNb4sZYKnE4IsCW-48">
          <mxGeometry relative="1" as="geometry">
            <Array as="points">
              <mxPoint x="165" y="170" />
              <mxPoint x="70" y="170" />
            </Array>
          </mxGeometry>
        </mxCell>
        <mxCell id="JbEtCdNb4sZYKnE4IsCW-104" style="edgeStyle=orthogonalEdgeStyle;rounded=0;orthogonalLoop=1;jettySize=auto;html=1;entryX=0.5;entryY=0;entryDx=0;entryDy=0;dashed=1;fillColor=#e1d5e7;strokeColor=#9673a6;" edge="1" parent="JbEtCdNb4sZYKnE4IsCW-9" source="JbEtCdNb4sZYKnE4IsCW-91" target="JbEtCdNb4sZYKnE4IsCW-49">
          <mxGeometry relative="1" as="geometry">
            <mxPoint x="60" y="420" as="targetPoint" />
            <Array as="points">
              <mxPoint x="530" y="400" />
              <mxPoint x="70" y="400" />
            </Array>
          </mxGeometry>
        </mxCell>
        <mxCell id="JbEtCdNb4sZYKnE4IsCW-110" style="edgeStyle=orthogonalEdgeStyle;rounded=0;orthogonalLoop=1;jettySize=auto;html=1;dashed=1;fillColor=#e1d5e7;strokeColor=#9673a6;" edge="1" parent="JbEtCdNb4sZYKnE4IsCW-9" source="JbEtCdNb4sZYKnE4IsCW-109">
          <mxGeometry relative="1" as="geometry">
            <mxPoint x="410" y="140" as="targetPoint" />
            <Array as="points">
              <mxPoint x="770" y="240" />
              <mxPoint x="410" y="240" />
            </Array>
          </mxGeometry>
        </mxCell>
        <mxCell id="JbEtCdNb4sZYKnE4IsCW-114" style="edgeStyle=orthogonalEdgeStyle;rounded=0;orthogonalLoop=1;jettySize=auto;html=1;entryX=0.364;entryY=1.001;entryDx=0;entryDy=0;entryPerimeter=0;dashed=1;fillColor=#e1d5e7;strokeColor=#9673a6;" edge="1" parent="JbEtCdNb4sZYKnE4IsCW-9" source="JbEtCdNb4sZYKnE4IsCW-113" target="JbEtCdNb4sZYKnE4IsCW-27">
          <mxGeometry relative="1" as="geometry">
            <Array as="points">
              <mxPoint x="1005" y="190" />
              <mxPoint x="824" y="190" />
            </Array>
          </mxGeometry>
        </mxCell>
        <mxCell id="JbEtCdNb4sZYKnE4IsCW-116" style="edgeStyle=orthogonalEdgeStyle;rounded=0;orthogonalLoop=1;jettySize=auto;html=1;dashed=1;fillColor=#e1d5e7;strokeColor=#9673a6;" edge="1" parent="JbEtCdNb4sZYKnE4IsCW-9" source="JbEtCdNb4sZYKnE4IsCW-115">
          <mxGeometry relative="1" as="geometry">
            <mxPoint x="1050" y="260" as="targetPoint" />
            <Array as="points">
              <mxPoint x="855" y="170" />
              <mxPoint x="1050" y="170" />
              <mxPoint x="1050" y="260" />
            </Array>
          </mxGeometry>
        </mxCell>
        <mxCell id="JbEtCdNb4sZYKnE4IsCW-130" style="edgeStyle=orthogonalEdgeStyle;rounded=0;orthogonalLoop=1;jettySize=auto;html=1;entryX=0.25;entryY=1;entryDx=0;entryDy=0;dashed=1;fillColor=#e1d5e7;strokeColor=#9673a6;" edge="1" parent="JbEtCdNb4sZYKnE4IsCW-9" source="JbEtCdNb4sZYKnE4IsCW-127" target="JbEtCdNb4sZYKnE4IsCW-18">
          <mxGeometry relative="1" as="geometry">
            <mxPoint x="140" y="150" as="targetPoint" />
            <Array as="points">
              <mxPoint x="175" y="350" />
              <mxPoint x="40" y="350" />
              <mxPoint x="40" y="160" />
              <mxPoint x="140" y="160" />
            </Array>
          </mxGeometry>
        </mxCell>
        <mxCell id="JbEtCdNb4sZYKnE4IsCW-131" value="" style="edgeStyle=orthogonalEdgeStyle;rounded=0;orthogonalLoop=1;jettySize=auto;html=1;entryX=0.845;entryY=1.001;entryDx=0;entryDy=0;entryPerimeter=0;fillColor=#ffe6cc;strokeColor=#d79b00;dashed=1;" edge="1" parent="JbEtCdNb4sZYKnE4IsCW-9" source="JbEtCdNb4sZYKnE4IsCW-129" target="JbEtCdNb4sZYKnE4IsCW-27">
          <mxGeometry relative="1" as="geometry">
            <mxPoint x="880" y="150" as="targetPoint" />
            <Array as="points">
              <mxPoint x="215" y="420" />
              <mxPoint x="1110" y="420" />
              <mxPoint x="1110" y="160" />
              <mxPoint x="881" y="160" />
            </Array>
          </mxGeometry>
        </mxCell>
        <mxCell id="JbEtCdNb4sZYKnE4IsCW-13" value="Mecânicos terceirizados" style="swimlane;startSize=20;horizontal=0;html=1;" vertex="1" parent="1">
          <mxGeometry x="-1600" y="610" width="1600" height="180" as="geometry" />
        </mxCell>
        <mxCell id="JbEtCdNb4sZYKnE4IsCW-79" value="" style="edgeStyle=orthogonalEdgeStyle;rounded=0;orthogonalLoop=1;jettySize=auto;html=1;" edge="1" parent="JbEtCdNb4sZYKnE4IsCW-13" source="JbEtCdNb4sZYKnE4IsCW-50" target="JbEtCdNb4sZYKnE4IsCW-78">
          <mxGeometry relative="1" as="geometry" />
        </mxCell>
        <mxCell id="JbEtCdNb4sZYKnE4IsCW-50" value="" style="ellipse;whiteSpace=wrap;html=1;aspect=fixed;fillColor=#d5e8d4;strokeColor=#82b366;" vertex="1" parent="JbEtCdNb4sZYKnE4IsCW-13">
          <mxGeometry x="50" y="70" width="40" height="40" as="geometry" />
        </mxCell>
        <mxCell id="JbEtCdNb4sZYKnE4IsCW-81" value="" style="edgeStyle=orthogonalEdgeStyle;rounded=0;orthogonalLoop=1;jettySize=auto;html=1;" edge="1" parent="JbEtCdNb4sZYKnE4IsCW-13" source="JbEtCdNb4sZYKnE4IsCW-78" target="JbEtCdNb4sZYKnE4IsCW-80">
          <mxGeometry relative="1" as="geometry" />
        </mxCell>
        <mxCell id="JbEtCdNb4sZYKnE4IsCW-78" value="Compra de peças automotivas." style="rounded=1;whiteSpace=wrap;html=1;fillColor=#dae8fc;strokeColor=#6c8ebf;" vertex="1" parent="JbEtCdNb4sZYKnE4IsCW-13">
          <mxGeometry x="120" y="60" width="120" height="60" as="geometry" />
        </mxCell>
        <mxCell id="JbEtCdNb4sZYKnE4IsCW-83" value="" style="edgeStyle=orthogonalEdgeStyle;rounded=0;orthogonalLoop=1;jettySize=auto;html=1;" edge="1" parent="JbEtCdNb4sZYKnE4IsCW-13" source="JbEtCdNb4sZYKnE4IsCW-80" target="JbEtCdNb4sZYKnE4IsCW-82">
          <mxGeometry relative="1" as="geometry" />
        </mxCell>
        <mxCell id="JbEtCdNb4sZYKnE4IsCW-80" value="" style="sketch=0;pointerEvents=1;shadow=0;dashed=0;html=1;strokeColor=none;fillColor=#505050;labelPosition=center;verticalLabelPosition=bottom;verticalAlign=top;outlineConnect=0;align=center;shape=mxgraph.office.concepts.clock;" vertex="1" parent="JbEtCdNb4sZYKnE4IsCW-13">
          <mxGeometry x="290" y="72.5" width="35" height="35" as="geometry" />
        </mxCell>
        <mxCell id="JbEtCdNb4sZYKnE4IsCW-86" value="" style="edgeStyle=orthogonalEdgeStyle;rounded=0;orthogonalLoop=1;jettySize=auto;html=1;" edge="1" parent="JbEtCdNb4sZYKnE4IsCW-13" source="JbEtCdNb4sZYKnE4IsCW-82" target="JbEtCdNb4sZYKnE4IsCW-85">
          <mxGeometry relative="1" as="geometry" />
        </mxCell>
        <mxCell id="JbEtCdNb4sZYKnE4IsCW-82" value="Avaliação pelo serviço." style="rounded=1;whiteSpace=wrap;html=1;fillColor=#dae8fc;strokeColor=#6c8ebf;" vertex="1" parent="JbEtCdNb4sZYKnE4IsCW-13">
          <mxGeometry x="370" y="60" width="120" height="60" as="geometry" />
        </mxCell>
        <mxCell id="JbEtCdNb4sZYKnE4IsCW-84" value="Aguarda a peça chegar." style="text;html=1;align=center;verticalAlign=middle;resizable=0;points=[];autosize=1;strokeColor=none;fillColor=none;" vertex="1" parent="JbEtCdNb4sZYKnE4IsCW-13">
          <mxGeometry x="232.5" y="120" width="150" height="30" as="geometry" />
        </mxCell>
        <mxCell id="JbEtCdNb4sZYKnE4IsCW-85" value="" style="ellipse;whiteSpace=wrap;html=1;aspect=fixed;fillColor=#f8cecc;strokeColor=#b85450;" vertex="1" parent="JbEtCdNb4sZYKnE4IsCW-13">
          <mxGeometry x="530" y="70" width="40" height="40" as="geometry" />
        </mxCell>
        <mxCell id="JbEtCdNb4sZYKnE4IsCW-87" value="" style="ellipse;whiteSpace=wrap;html=1;" vertex="1" parent="JbEtCdNb4sZYKnE4IsCW-13">
          <mxGeometry x="175" y="55" width="10" height="5" as="geometry" />
        </mxCell>
        <mxCell id="JbEtCdNb4sZYKnE4IsCW-15" value="" style="ellipse;shape=doubleEllipse;whiteSpace=wrap;html=1;aspect=fixed;" vertex="1" parent="1">
          <mxGeometry x="-130" y="880" width="80" height="80" as="geometry" />
        </mxCell>
        <mxCell id="JbEtCdNb4sZYKnE4IsCW-101" value="" style="edgeStyle=orthogonalEdgeStyle;rounded=0;orthogonalLoop=1;jettySize=auto;html=1;entryX=0.5;entryY=0;entryDx=0;entryDy=0;dashed=1;fillColor=#e1d5e7;strokeColor=#9673a6;" edge="1" parent="1" source="JbEtCdNb4sZYKnE4IsCW-89" target="JbEtCdNb4sZYKnE4IsCW-82">
          <mxGeometry relative="1" as="geometry">
            <Array as="points">
              <mxPoint x="-1385" y="580" />
              <mxPoint x="-1170" y="580" />
            </Array>
          </mxGeometry>
        </mxCell>
        <mxCell id="JbEtCdNb4sZYKnE4IsCW-120" value="Usuário." style="text;html=1;align=center;verticalAlign=middle;resizable=0;points=[];autosize=1;strokeColor=none;fillColor=none;" vertex="1" parent="1">
          <mxGeometry x="-445" y="268" width="70" height="30" as="geometry" />
        </mxCell>
        <mxCell id="JbEtCdNb4sZYKnE4IsCW-133" value="" style="ellipse;whiteSpace=wrap;html=1;aspect=fixed;fillColor=#d5e8d4;strokeColor=#82b366;" vertex="1" parent="1">
          <mxGeometry x="-1550" y="1115" width="40" height="40" as="geometry" />
        </mxCell>
        <mxCell id="JbEtCdNb4sZYKnE4IsCW-134" value="Envio da solicitação" style="rounded=1;whiteSpace=wrap;html=1;fillColor=#dae8fc;strokeColor=#6c8ebf;" vertex="1" parent="1">
          <mxGeometry x="-1470" y="1105" width="120" height="60" as="geometry" />
        </mxCell>
        <mxCell id="JbEtCdNb4sZYKnE4IsCW-135" value="" style="endArrow=classic;html=1;rounded=0;entryX=0;entryY=0.5;entryDx=0;entryDy=0;" edge="1" parent="1" target="JbEtCdNb4sZYKnE4IsCW-134">
          <mxGeometry width="50" height="50" relative="1" as="geometry">
            <mxPoint x="-1510" y="1135" as="sourcePoint" />
            <mxPoint x="-1460" y="1085" as="targetPoint" />
          </mxGeometry>
        </mxCell>
        <mxCell id="JbEtCdNb4sZYKnE4IsCW-136" value="" style="sketch=0;pointerEvents=1;shadow=0;dashed=0;html=1;strokeColor=none;fillColor=#505050;labelPosition=center;verticalLabelPosition=bottom;verticalAlign=top;outlineConnect=0;align=center;shape=mxgraph.office.concepts.clock;" vertex="1" parent="1">
          <mxGeometry x="-1310" y="1117.5" width="35" height="35" as="geometry" />
        </mxCell>
        <mxCell id="JbEtCdNb4sZYKnE4IsCW-137" value="" style="endArrow=classic;html=1;rounded=0;entryX=0;entryY=0.5;entryDx=0;entryDy=0;" edge="1" parent="1">
          <mxGeometry width="50" height="50" relative="1" as="geometry">
            <mxPoint x="-1350" y="1135" as="sourcePoint" />
            <mxPoint x="-1310" y="1134.5" as="targetPoint" />
          </mxGeometry>
        </mxCell>
        <mxCell id="JbEtCdNb4sZYKnE4IsCW-138" value="" style="endArrow=classic;html=1;rounded=0;entryX=0;entryY=0.5;entryDx=0;entryDy=0;" edge="1" parent="1" target="JbEtCdNb4sZYKnE4IsCW-139">
          <mxGeometry width="50" height="50" relative="1" as="geometry">
            <mxPoint x="-1275" y="1135" as="sourcePoint" />
            <mxPoint x="-1235" y="1134.5" as="targetPoint" />
          </mxGeometry>
        </mxCell>
        <mxCell id="JbEtCdNb4sZYKnE4IsCW-139" value="Resposta à inspeção." style="rounded=1;whiteSpace=wrap;html=1;fillColor=#dae8fc;strokeColor=#6c8ebf;" vertex="1" parent="1">
          <mxGeometry x="-1230" y="1105" width="120" height="60" as="geometry" />
        </mxCell>
        <mxCell id="JbEtCdNb4sZYKnE4IsCW-140" value="" style="endArrow=classic;html=1;rounded=0;" edge="1" parent="1" target="JbEtCdNb4sZYKnE4IsCW-141">
          <mxGeometry width="50" height="50" relative="1" as="geometry">
            <mxPoint x="-1110" y="1135" as="sourcePoint" />
            <mxPoint x="-1080" y="1135" as="targetPoint" />
          </mxGeometry>
        </mxCell>
        <mxCell id="JbEtCdNb4sZYKnE4IsCW-141" value="Aceita&lt;div&gt;prosseguir?&lt;/div&gt;" style="html=1;whiteSpace=wrap;aspect=fixed;shape=isoRectangle;fillColor=#dae8fc;strokeColor=#6c8ebf;" vertex="1" parent="1">
          <mxGeometry x="-1070" y="1090" width="150" height="90" as="geometry" />
        </mxCell>
        <mxCell id="JbEtCdNb4sZYKnE4IsCW-142" value="" style="endArrow=classic;html=1;rounded=0;" edge="1" parent="1">
          <mxGeometry width="50" height="50" relative="1" as="geometry">
            <mxPoint x="-910" y="1135" as="sourcePoint" />
            <mxPoint x="-870" y="1135" as="targetPoint" />
          </mxGeometry>
        </mxCell>
        <mxCell id="JbEtCdNb4sZYKnE4IsCW-143" value="" style="edgeStyle=orthogonalEdgeStyle;rounded=0;orthogonalLoop=1;jettySize=auto;html=1;" edge="1" parent="1" source="JbEtCdNb4sZYKnE4IsCW-144">
          <mxGeometry relative="1" as="geometry">
            <mxPoint x="-800" y="1133" as="targetPoint" />
          </mxGeometry>
        </mxCell>
        <mxCell id="JbEtCdNb4sZYKnE4IsCW-144" value="" style="sketch=0;pointerEvents=1;shadow=0;dashed=0;html=1;strokeColor=none;fillColor=#505050;labelPosition=center;verticalLabelPosition=bottom;verticalAlign=top;outlineConnect=0;align=center;shape=mxgraph.office.concepts.clock;" vertex="1" parent="1">
          <mxGeometry x="-870" y="1115" width="35" height="35" as="geometry" />
        </mxCell>
        <mxCell id="JbEtCdNb4sZYKnE4IsCW-145" value="Transporta o veículo, se assim preferiu,&lt;div&gt;e aguarda o resultado da inspeção.&lt;/div&gt;" style="text;html=1;align=center;verticalAlign=middle;resizable=0;points=[];autosize=1;strokeColor=none;fillColor=none;" vertex="1" parent="1">
          <mxGeometry x="-1400" y="1165" width="230" height="40" as="geometry" />
        </mxCell>
        <mxCell id="JbEtCdNb4sZYKnE4IsCW-146" value="" style="ellipse;whiteSpace=wrap;html=1;" vertex="1" parent="1">
          <mxGeometry x="-1420" y="1165" width="10" height="5" as="geometry" />
        </mxCell>
        <mxCell id="JbEtCdNb4sZYKnE4IsCW-147" value="Não" style="text;html=1;align=center;verticalAlign=middle;resizable=0;points=[];autosize=1;strokeColor=none;fillColor=none;" vertex="1" parent="1">
          <mxGeometry x="-1060" y="1060" width="50" height="30" as="geometry" />
        </mxCell>
        <mxCell id="JbEtCdNb4sZYKnE4IsCW-148" value="Sim" style="text;html=1;align=center;verticalAlign=middle;resizable=0;points=[];autosize=1;strokeColor=none;fillColor=none;" vertex="1" parent="1">
          <mxGeometry x="-920" y="1102.5" width="40" height="30" as="geometry" />
        </mxCell>
        <mxCell id="JbEtCdNb4sZYKnE4IsCW-149" value="" style="edgeStyle=orthogonalEdgeStyle;rounded=0;orthogonalLoop=1;jettySize=auto;html=1;" edge="1" parent="1" source="JbEtCdNb4sZYKnE4IsCW-150" target="JbEtCdNb4sZYKnE4IsCW-152">
          <mxGeometry relative="1" as="geometry" />
        </mxCell>
        <mxCell id="JbEtCdNb4sZYKnE4IsCW-150" value="" style="ellipse;whiteSpace=wrap;html=1;aspect=fixed;fillColor=#d5e8d4;strokeColor=#82b366;" vertex="1" parent="1">
          <mxGeometry x="-1530" y="1295" width="40" height="40" as="geometry" />
        </mxCell>
        <mxCell id="JbEtCdNb4sZYKnE4IsCW-151" value="" style="edgeStyle=orthogonalEdgeStyle;rounded=0;orthogonalLoop=1;jettySize=auto;html=1;" edge="1" parent="1" source="JbEtCdNb4sZYKnE4IsCW-152" target="JbEtCdNb4sZYKnE4IsCW-155">
          <mxGeometry relative="1" as="geometry" />
        </mxCell>
        <mxCell id="JbEtCdNb4sZYKnE4IsCW-152" value="Envio da solicitação" style="rounded=1;whiteSpace=wrap;html=1;fillColor=#dae8fc;strokeColor=#6c8ebf;" vertex="1" parent="1">
          <mxGeometry x="-1460" y="1285" width="120" height="60" as="geometry" />
        </mxCell>
        <mxCell id="JbEtCdNb4sZYKnE4IsCW-153" value="" style="edgeStyle=orthogonalEdgeStyle;rounded=0;orthogonalLoop=1;jettySize=auto;html=1;" edge="1" parent="1" source="JbEtCdNb4sZYKnE4IsCW-155" target="JbEtCdNb4sZYKnE4IsCW-157">
          <mxGeometry relative="1" as="geometry" />
        </mxCell>
        <mxCell id="JbEtCdNb4sZYKnE4IsCW-154" style="edgeStyle=orthogonalEdgeStyle;rounded=0;orthogonalLoop=1;jettySize=auto;html=1;entryX=0.5;entryY=1;entryDx=0;entryDy=0;" edge="1" parent="1" source="JbEtCdNb4sZYKnE4IsCW-155">
          <mxGeometry relative="1" as="geometry">
            <mxPoint x="-810" y="1345" as="targetPoint" />
            <Array as="points">
              <mxPoint x="-1225" y="1395" />
              <mxPoint x="-810" y="1395" />
            </Array>
          </mxGeometry>
        </mxCell>
        <mxCell id="JbEtCdNb4sZYKnE4IsCW-155" value="Responsabilidade&lt;div&gt;do transporte?&lt;/div&gt;" style="html=1;whiteSpace=wrap;aspect=fixed;shape=isoRectangle;fillColor=#dae8fc;strokeColor=#6c8ebf;" vertex="1" parent="1">
          <mxGeometry x="-1300" y="1270" width="150" height="90" as="geometry" />
        </mxCell>
        <mxCell id="JbEtCdNb4sZYKnE4IsCW-156" value="" style="edgeStyle=orthogonalEdgeStyle;rounded=0;orthogonalLoop=1;jettySize=auto;html=1;" edge="1" parent="1" source="JbEtCdNb4sZYKnE4IsCW-157" target="JbEtCdNb4sZYKnE4IsCW-161">
          <mxGeometry relative="1" as="geometry" />
        </mxCell>
        <mxCell id="JbEtCdNb4sZYKnE4IsCW-157" value="Requisição de transporte." style="rounded=1;whiteSpace=wrap;html=1;fillColor=#dae8fc;strokeColor=#6c8ebf;" vertex="1" parent="1">
          <mxGeometry x="-1110" y="1285" width="120" height="60" as="geometry" />
        </mxCell>
        <mxCell id="JbEtCdNb4sZYKnE4IsCW-158" value="DIY" style="text;html=1;align=center;verticalAlign=middle;resizable=0;points=[];autosize=1;strokeColor=none;fillColor=none;" vertex="1" parent="1">
          <mxGeometry x="-1160" y="1275" width="40" height="30" as="geometry" />
        </mxCell>
        <mxCell id="JbEtCdNb4sZYKnE4IsCW-159" value="Usuário" style="text;html=1;align=center;verticalAlign=middle;resizable=0;points=[];autosize=1;strokeColor=none;fillColor=none;" vertex="1" parent="1">
          <mxGeometry x="-1295" y="1355" width="60" height="30" as="geometry" />
        </mxCell>
        <mxCell id="JbEtCdNb4sZYKnE4IsCW-160" value="" style="edgeStyle=orthogonalEdgeStyle;rounded=0;orthogonalLoop=1;jettySize=auto;html=1;" edge="1" parent="1" source="JbEtCdNb4sZYKnE4IsCW-161">
          <mxGeometry relative="1" as="geometry">
            <mxPoint x="-870" y="1315" as="targetPoint" />
          </mxGeometry>
        </mxCell>
        <mxCell id="JbEtCdNb4sZYKnE4IsCW-161" value="" style="sketch=0;pointerEvents=1;shadow=0;dashed=0;html=1;strokeColor=none;fillColor=#505050;labelPosition=center;verticalLabelPosition=bottom;verticalAlign=top;outlineConnect=0;align=center;shape=mxgraph.office.concepts.clock;" vertex="1" parent="1">
          <mxGeometry x="-950" y="1297.5" width="35" height="35" as="geometry" />
        </mxCell>
        <mxCell id="JbEtCdNb4sZYKnE4IsCW-162" value="Aguarda a chegada do veículo." style="text;html=1;align=center;verticalAlign=middle;resizable=0;points=[];autosize=1;strokeColor=none;fillColor=none;" vertex="1" parent="1">
          <mxGeometry x="-1020" y="1345" width="190" height="30" as="geometry" />
        </mxCell>
        <mxCell id="JbEtCdNb4sZYKnE4IsCW-163" value="" style="ellipse;whiteSpace=wrap;html=1;" vertex="1" parent="1">
          <mxGeometry x="-1055" y="1345" width="10" height="5" as="geometry" />
        </mxCell>
        <mxCell id="JbEtCdNb4sZYKnE4IsCW-164" value="" style="ellipse;whiteSpace=wrap;html=1;" vertex="1" parent="1">
          <mxGeometry x="-815" y="1280" width="10" height="5" as="geometry" />
        </mxCell>
        <mxCell id="JbEtCdNb4sZYKnE4IsCW-165" value="" style="edgeStyle=orthogonalEdgeStyle;rounded=0;orthogonalLoop=1;jettySize=auto;html=1;" edge="1" parent="1" source="JbEtCdNb4sZYKnE4IsCW-166" target="JbEtCdNb4sZYKnE4IsCW-168">
          <mxGeometry relative="1" as="geometry" />
        </mxCell>
        <mxCell id="JbEtCdNb4sZYKnE4IsCW-166" value="" style="ellipse;whiteSpace=wrap;html=1;aspect=fixed;fillColor=#d5e8d4;strokeColor=#82b366;" vertex="1" parent="1">
          <mxGeometry x="-1530" y="1475" width="40" height="40" as="geometry" />
        </mxCell>
        <mxCell id="JbEtCdNb4sZYKnE4IsCW-167" value="" style="edgeStyle=orthogonalEdgeStyle;rounded=0;orthogonalLoop=1;jettySize=auto;html=1;" edge="1" parent="1" source="JbEtCdNb4sZYKnE4IsCW-168" target="JbEtCdNb4sZYKnE4IsCW-171">
          <mxGeometry relative="1" as="geometry" />
        </mxCell>
        <mxCell id="JbEtCdNb4sZYKnE4IsCW-168" value="Compartilhamento de&lt;div&gt;localização.&lt;/div&gt;" style="rounded=1;whiteSpace=wrap;html=1;fillColor=#dae8fc;strokeColor=#6c8ebf;" vertex="1" parent="1">
          <mxGeometry x="-1450" y="1465" width="120" height="60" as="geometry" />
        </mxCell>
        <mxCell id="JbEtCdNb4sZYKnE4IsCW-169" value="" style="ellipse;whiteSpace=wrap;html=1;" vertex="1" parent="1">
          <mxGeometry x="-1370" y="1525" width="10" height="5" as="geometry" />
        </mxCell>
        <mxCell id="JbEtCdNb4sZYKnE4IsCW-170" value="" style="edgeStyle=orthogonalEdgeStyle;rounded=0;orthogonalLoop=1;jettySize=auto;html=1;dashed=1;entryX=0.5;entryY=1;entryDx=0;entryDy=0;fillColor=#e1d5e7;strokeColor=#9673a6;" edge="1" parent="1" target="JbEtCdNb4sZYKnE4IsCW-166">
          <mxGeometry relative="1" as="geometry">
            <mxPoint x="-1400" y="1645" as="sourcePoint" />
            <mxPoint x="-1510" y="1555" as="targetPoint" />
            <Array as="points">
              <mxPoint x="-1400" y="1565" />
              <mxPoint x="-1510" y="1565" />
            </Array>
          </mxGeometry>
        </mxCell>
        <mxCell id="JbEtCdNb4sZYKnE4IsCW-171" value="" style="ellipse;whiteSpace=wrap;html=1;aspect=fixed;fillColor=#f8cecc;strokeColor=#b85450;" vertex="1" parent="1">
          <mxGeometry x="-1290" y="1475" width="40" height="40" as="geometry" />
        </mxCell>
        <mxCell id="JbEtCdNb4sZYKnE4IsCW-172" value="" style="shape=waypoint;sketch=0;fillStyle=solid;size=6;pointerEvents=1;points=[];fillColor=#e1d5e7;resizable=0;rotatable=0;perimeter=centerPerimeter;snapToPoint=1;strokeColor=#9673a6;" vertex="1" parent="1">
          <mxGeometry x="-1060" y="1415" width="20" height="20" as="geometry" />
        </mxCell>
        <mxCell id="JbEtCdNb4sZYKnE4IsCW-173" value="" style="ellipse;whiteSpace=wrap;html=1;" vertex="1" parent="1">
          <mxGeometry x="-1410" y="1460" width="10" height="5" as="geometry" />
        </mxCell>
        <mxCell id="JbEtCdNb4sZYKnE4IsCW-174" value="" style="ellipse;whiteSpace=wrap;html=1;" vertex="1" parent="1">
          <mxGeometry x="-1370" y="1460" width="10" height="5" as="geometry" />
        </mxCell>
        <mxCell id="JbEtCdNb4sZYKnE4IsCW-175" value="" style="edgeStyle=orthogonalEdgeStyle;rounded=0;orthogonalLoop=1;jettySize=auto;html=1;entryX=0.5;entryY=0;entryDx=0;entryDy=0;dashed=1;fillColor=#e1d5e7;strokeColor=#9673a6;" edge="1" parent="1" source="JbEtCdNb4sZYKnE4IsCW-146" target="JbEtCdNb4sZYKnE4IsCW-150">
          <mxGeometry relative="1" as="geometry">
            <Array as="points">
              <mxPoint x="-1415" y="1195" />
              <mxPoint x="-1510" y="1195" />
            </Array>
          </mxGeometry>
        </mxCell>
        <mxCell id="JbEtCdNb4sZYKnE4IsCW-176" style="edgeStyle=orthogonalEdgeStyle;rounded=0;orthogonalLoop=1;jettySize=auto;html=1;entryX=0.5;entryY=0;entryDx=0;entryDy=0;dashed=1;fillColor=#e1d5e7;strokeColor=#9673a6;" edge="1" parent="1" source="JbEtCdNb4sZYKnE4IsCW-163" target="JbEtCdNb4sZYKnE4IsCW-166">
          <mxGeometry relative="1" as="geometry">
            <mxPoint x="-1520" y="1445" as="targetPoint" />
            <Array as="points">
              <mxPoint x="-1050" y="1425" />
              <mxPoint x="-1510" y="1425" />
            </Array>
          </mxGeometry>
        </mxCell>
        <mxCell id="JbEtCdNb4sZYKnE4IsCW-177" style="edgeStyle=orthogonalEdgeStyle;rounded=0;orthogonalLoop=1;jettySize=auto;html=1;dashed=1;fillColor=#e1d5e7;strokeColor=#9673a6;" edge="1" parent="1" source="JbEtCdNb4sZYKnE4IsCW-164">
          <mxGeometry relative="1" as="geometry">
            <mxPoint x="-1170" y="1165" as="targetPoint" />
            <Array as="points">
              <mxPoint x="-810" y="1265" />
              <mxPoint x="-1170" y="1265" />
            </Array>
          </mxGeometry>
        </mxCell>
        <mxCell id="JbEtCdNb4sZYKnE4IsCW-178" style="edgeStyle=orthogonalEdgeStyle;rounded=0;orthogonalLoop=1;jettySize=auto;html=1;entryX=0.25;entryY=1;entryDx=0;entryDy=0;dashed=1;fillColor=#e1d5e7;strokeColor=#9673a6;" edge="1" parent="1" source="JbEtCdNb4sZYKnE4IsCW-173" target="JbEtCdNb4sZYKnE4IsCW-134">
          <mxGeometry relative="1" as="geometry">
            <mxPoint x="-1440" y="1175" as="targetPoint" />
            <Array as="points">
              <mxPoint x="-1405" y="1375" />
              <mxPoint x="-1540" y="1375" />
              <mxPoint x="-1540" y="1185" />
              <mxPoint x="-1440" y="1185" />
            </Array>
          </mxGeometry>
        </mxCell>
        <mxCell id="JbEtCdNb4sZYKnE4IsCW-179" value="" style="edgeStyle=orthogonalEdgeStyle;rounded=0;orthogonalLoop=1;jettySize=auto;html=1;" edge="1" parent="1" source="JbEtCdNb4sZYKnE4IsCW-180" target="JbEtCdNb4sZYKnE4IsCW-182">
          <mxGeometry relative="1" as="geometry" />
        </mxCell>
        <mxCell id="JbEtCdNb4sZYKnE4IsCW-180" value="" style="ellipse;whiteSpace=wrap;html=1;aspect=fixed;fillColor=#d5e8d4;strokeColor=#82b366;" vertex="1" parent="1">
          <mxGeometry x="-1530" y="1655" width="40" height="40" as="geometry" />
        </mxCell>
        <mxCell id="JbEtCdNb4sZYKnE4IsCW-181" value="" style="edgeStyle=orthogonalEdgeStyle;rounded=0;orthogonalLoop=1;jettySize=auto;html=1;" edge="1" parent="1" source="JbEtCdNb4sZYKnE4IsCW-182" target="JbEtCdNb4sZYKnE4IsCW-184">
          <mxGeometry relative="1" as="geometry" />
        </mxCell>
        <mxCell id="JbEtCdNb4sZYKnE4IsCW-182" value="Compra de peças automotivas." style="rounded=1;whiteSpace=wrap;html=1;fillColor=#dae8fc;strokeColor=#6c8ebf;" vertex="1" parent="1">
          <mxGeometry x="-1460" y="1645" width="120" height="60" as="geometry" />
        </mxCell>
        <mxCell id="JbEtCdNb4sZYKnE4IsCW-183" value="" style="edgeStyle=orthogonalEdgeStyle;rounded=0;orthogonalLoop=1;jettySize=auto;html=1;" edge="1" parent="1" source="JbEtCdNb4sZYKnE4IsCW-184" target="JbEtCdNb4sZYKnE4IsCW-186">
          <mxGeometry relative="1" as="geometry" />
        </mxCell>
        <mxCell id="JbEtCdNb4sZYKnE4IsCW-184" value="" style="sketch=0;pointerEvents=1;shadow=0;dashed=0;html=1;strokeColor=none;fillColor=#505050;labelPosition=center;verticalLabelPosition=bottom;verticalAlign=top;outlineConnect=0;align=center;shape=mxgraph.office.concepts.clock;" vertex="1" parent="1">
          <mxGeometry x="-1290" y="1657.5" width="35" height="35" as="geometry" />
        </mxCell>
        <mxCell id="JbEtCdNb4sZYKnE4IsCW-185" value="" style="edgeStyle=orthogonalEdgeStyle;rounded=0;orthogonalLoop=1;jettySize=auto;html=1;" edge="1" parent="1" source="JbEtCdNb4sZYKnE4IsCW-186" target="JbEtCdNb4sZYKnE4IsCW-188">
          <mxGeometry relative="1" as="geometry" />
        </mxCell>
        <mxCell id="JbEtCdNb4sZYKnE4IsCW-186" value="Avaliação pelo serviço." style="rounded=1;whiteSpace=wrap;html=1;fillColor=#dae8fc;strokeColor=#6c8ebf;" vertex="1" parent="1">
          <mxGeometry x="-1210" y="1645" width="120" height="60" as="geometry" />
        </mxCell>
        <mxCell id="JbEtCdNb4sZYKnE4IsCW-187" value="Aguarda a peça chegar." style="text;html=1;align=center;verticalAlign=middle;resizable=0;points=[];autosize=1;strokeColor=none;fillColor=none;" vertex="1" parent="1">
          <mxGeometry x="-1347.5" y="1705" width="150" height="30" as="geometry" />
        </mxCell>
        <mxCell id="JbEtCdNb4sZYKnE4IsCW-188" value="" style="ellipse;whiteSpace=wrap;html=1;aspect=fixed;fillColor=#f8cecc;strokeColor=#b85450;" vertex="1" parent="1">
          <mxGeometry x="-1050" y="1655" width="40" height="40" as="geometry" />
        </mxCell>
        <mxCell id="JbEtCdNb4sZYKnE4IsCW-189" value="" style="ellipse;whiteSpace=wrap;html=1;" vertex="1" parent="1">
          <mxGeometry x="-1405" y="1640" width="10" height="5" as="geometry" />
        </mxCell>
        <mxCell id="JbEtCdNb4sZYKnE4IsCW-190" value="" style="edgeStyle=orthogonalEdgeStyle;rounded=0;orthogonalLoop=1;jettySize=auto;html=1;entryX=0.5;entryY=0;entryDx=0;entryDy=0;dashed=1;fillColor=#e1d5e7;strokeColor=#9673a6;" edge="1" parent="1" source="JbEtCdNb4sZYKnE4IsCW-169" target="JbEtCdNb4sZYKnE4IsCW-186">
          <mxGeometry relative="1" as="geometry">
            <Array as="points">
              <mxPoint x="-1365" y="1555" />
              <mxPoint x="-1150" y="1555" />
            </Array>
          </mxGeometry>
        </mxCell>
      </root>
    </mxGraphModel>
  </diagram>
</mxfile>
